<svg width="1000" height="1000" viewBox="0 0 1000 1000" fill="none" xmlns="http://www.w3.org/2000/svg">
<rect width="1000" height="1000" rx="200" fill="#6428EF"/>
<path d="M200 327.97H285.857V413.94H200V327.97Z" fill="white"/>
<path d="M285.857 327.97H371.714V413.94H285.857V327.97Z" fill="white"/>
<path d="M200 413.94H285.857V499.909H200V413.94Z" fill="white"/>
<path d="M285.857 413.94H371.714V499.909H285.857V413.94Z" fill="white"/>
<path d="M285.857 499.909H371.714V585.879H285.857V499.909Z" fill="white"/>
<path d="M371.714 499.909H457.571V585.879H371.714V499.909Z" fill="white"/>
<path d="M629.286 327.97H715.143V413.94H629.286V327.97Z" fill="white"/>
<path d="M629.286 327.97H715.143V413.94H629.286V327.97Z" fill="black" fill-opacity="0.08"/>
<path d="M715.143 327.97H801V413.94H715.143V327.97Z" fill="white"/>
<path d="M629.286 413.94H715.143V499.909H629.286V413.94Z" fill="white"/>
<path d="M629.286 413.94H715.143V499.909H629.286V413.94Z" fill="black" fill-opacity="0.08"/>
<path d="M715.143 413.94H801V499.909H715.143V413.94Z" fill="white"/>
<path d="M715.143 413.94H801V499.909H715.143V413.94Z" fill="black" fill-opacity="0.08"/>
<path d="M543.429 499.909H629.286V585.879H543.429V499.909Z" fill="white"/>
<path d="M457.571 585.879H543.429V671.849H457.571V585.879Z" fill="white"/>
<path d="M457.571 499.909H543.429V585.879H457.571V499.909Z" fill="white"/>
<path d="M457.571 413.94H543.429V499.909H457.571V413.94Z" fill="white"/>
<path d="M543.429 413.94H629.286V499.909H543.429V413.94Z" fill="white"/>
<path d="M543.429 413.94H629.286V499.909H543.429V413.94Z" fill="black" fill-opacity="0.08"/>
<path d="M543.429 327.97H629.286V413.94H543.429V327.97Z" fill="white"/>
<path d="M543.429 327.97H629.286V413.94H543.429V327.97Z" fill="black" fill-opacity="0.08"/>
<path d="M457.571 327.97H543.429V413.94H457.571V327.97Z" fill="white"/>
<path d="M457.571 327.97H543.429V413.94H457.571V327.97Z" fill="black" fill-opacity="0.08"/>
<path d="M371.714 413.94H457.571V499.909H371.714V413.94Z" fill="white"/>
<path d="M371.714 327.97H457.571V413.94H371.714V327.97Z" fill="white"/>
<path d="M371.714 242H457.571V327.97H371.714V242Z" fill="white"/>
<path d="M285.857 242H371.714V327.97H285.857V242Z" fill="white"/>
<path d="M629.286 242H715.143V327.97H629.286V242Z" fill="white"/>
<path d="M543.429 242H629.286V327.97H543.429V242Z" fill="white"/>
<path d="M543.429 242H629.286V327.97H543.429V242Z" fill="black" fill-opacity="0.08"/>
<path d="M629.286 499.909H715.143V585.879H629.286V499.909Z" fill="white"/>
<path d="M285.857 499.909H371.714V585.879H285.857V499.909Z" fill="white"/>
<path d="M371.714 585.879H457.571V671.849H371.714V585.879Z" fill="white"/>
<path d="M629.286 499.909H715.143V585.879H629.286V499.909Z" fill="white"/>
<path d="M629.286 499.909H715.143V585.879H629.286V499.909Z" fill="black" fill-opacity="0.08"/>
<path d="M543.429 585.879H629.286V671.849H543.429V585.879Z" fill="white"/>
<path d="M457.571 671.849H543.429V757.819H457.571V671.849Z" fill="white"/>
<path d="M457.571 585.879H543.429V671.849H457.571V585.879Z" fill="white"/>
<path d="M457.571 499.909H543.429V585.879H457.571V499.909Z" fill="white"/>
<path d="M543.429 499.909H629.286V585.879H543.429V499.909Z" fill="white"/>
<path d="M371.714 499.909H457.571V585.879H371.714V499.909Z" fill="white"/>
</svg>
